<?xml version="1.0" standalone="no"?>
<!DOCTYPE svg PUBLIC "-//W3C//DTD SVG 20010904//EN"
 "http://www.w3.org/TR/2001/REC-SVG-20010904/DTD/svg10.dtd">
<svg version="1.0" xmlns="http://www.w3.org/2000/svg"
 width="584.000000pt" height="584.000000pt" viewBox="0 0 584.000000 584.000000"
 preserveAspectRatio="xMidYMid meet">
<metadata>
Created by potrace 1.14, written by Peter Selinger 2001-2017
</metadata>
<g transform="translate(0.000000,584.000000) scale(0.100000,-0.100000)"
fill="#000000" stroke="none">
<path d="M3877 5124 c-2 -2 -41 -6 -87 -9 -47 -4 -98 -8 -115 -10 -112 -11
-173 -18 -190 -21 -11 -3 -40 -7 -65 -10 -25 -3 -52 -7 -60 -9 -8 -2 -35 -7
-60 -10 -25 -3 -58 -9 -75 -12 -16 -3 -39 -7 -50 -9 -35 -6 -79 -14 -110 -21
-39 -9 -33 -8 -90 -18 -27 -5 -54 -10 -60 -11 -5 -1 -12 -3 -15 -4 -9 -3 -94
-21 -120 -25 -8 -1 -35 -8 -60 -14 -25 -7 -52 -15 -60 -17 -28 -6 -223 -64
-305 -90 -44 -14 -84 -27 -90 -28 -5 -1 -35 -11 -65 -21 -30 -11 -57 -20 -60
-20 -7 -2 -85 -24 -165 -48 -38 -12 -78 -22 -87 -24 -28 -5 -256 -108 -332
-150 -73 -40 -139 -95 -162 -135 -58 -99 -61 -136 -17 -177 44 -42 104 -30
145 28 17 25 46 49 85 67 32 16 60 29 63 29 3 1 27 11 54 23 27 12 52 22 57
22 4 0 20 5 36 12 15 6 30 12 33 13 3 1 32 10 65 20 33 11 62 20 65 20 3 1 12
5 20 8 57 24 223 83 265 93 25 6 30 8 85 23 25 7 52 15 60 17 8 2 36 10 63 18
26 8 47 12 47 9 0 -3 7 0 15 7 8 7 15 10 15 7 0 -3 15 -1 33 4 17 5 46 12 62
15 43 8 60 12 60 14 0 2 24 7 72 14 37 5 63 10 121 21 15 3 43 8 62 11 19 2
46 6 60 9 56 12 77 15 110 20 19 3 44 7 55 9 11 2 43 7 70 10 28 4 66 9 85 11
19 3 53 7 75 9 22 3 56 8 75 11 131 19 362 29 720 28 325 0 480 -4 475 -13 -2
-3 22 -5 53 -6 32 0 75 -3 97 -7 22 -3 66 -8 98 -12 61 -7 92 -12 92 -15 0 -1
16 -4 35 -7 123 -17 372 -96 423 -135 17 -13 17 -15 -5 -39 -23 -25 -171 -129
-183 -129 -3 0 -29 -15 -58 -33 -63 -40 -380 -195 -411 -201 -6 -2 -27 -9 -46
-18 -82 -35 -285 -111 -297 -111 -7 0 -13 -3 -13 -7 0 -4 -28 -17 -62 -29 -35
-13 -76 -29 -93 -36 -53 -24 -127 -47 -133 -41 -3 3 0 6 7 6 7 0 10 4 6 9 -3
5 2 16 10 24 8 9 17 29 18 46 2 17 6 34 9 37 8 8 -18 102 -34 122 -25 32 -49
57 -56 58 -24 5 -52 17 -52 23 0 11 -101 4 -133 -8 -15 -6 -42 -24 -60 -41
-17 -16 -49 -43 -69 -58 -21 -16 -35 -32 -31 -36 3 -3 2 -6 -4 -6 -13 0 -322
-308 -316 -314 3 -2 -5 -7 -16 -11 -12 -3 -21 -9 -21 -13 0 -7 -111 -124 -147
-155 -11 -10 -29 -19 -40 -21 -11 -3 -51 -14 -89 -26 -82 -26 -102 -31 -129
-33 -11 -1 -22 -5 -25 -8 -4 -5 -127 -45 -165 -54 -5 -1 -17 -5 -25 -8 -19 -8
-260 -87 -280 -92 -8 -2 -32 -11 -52 -19 -21 -9 -38 -14 -38 -10 0 3 -12 -3
-27 -14 -16 -10 -33 -17 -39 -15 -6 2 -17 -3 -24 -12 -7 -8 -18 -15 -26 -15
-11 0 -100 -57 -146 -93 -73 -58 -37 -241 57 -290 59 -30 67 -34 105 -43 19
-4 38 -9 43 -10 4 -1 8 -3 10 -4 1 -2 16 -4 32 -5 17 -1 39 -4 50 -8 11 -4 35
-8 53 -9 17 -1 32 -5 32 -9 0 -6 -13 -22 -97 -114 -24 -26 -43 -50 -43 -54 0
-5 -11 -17 -25 -27 -14 -10 -25 -23 -25 -27 0 -5 -12 -21 -27 -37 -16 -15 -37
-40 -47 -54 -11 -15 -29 -38 -40 -51 -57 -66 -80 -95 -124 -155 -26 -36 -50
-66 -54 -68 -5 -2 -8 -10 -8 -18 0 -8 -4 -14 -9 -14 -5 0 -23 -21 -40 -48 -17
-26 -42 -60 -56 -77 -29 -35 -31 -38 -69 -90 -17 -22 -33 -42 -36 -45 -4 -3
-17 -26 -29 -52 -13 -27 -26 -48 -31 -48 -4 0 -11 -12 -15 -27 -5 -16 -9 -32
-11 -38 -13 -47 -25 -114 -28 -165 -2 -34 13 -80 27 -80 4 0 7 -7 7 -16 0 -8
5 -12 10 -9 5 3 10 1 10 -4 0 -6 3 -10 8 -10 4 1 9 0 12 -1 18 -7 70 -5 70 3
0 6 3 8 6 4 3 -3 28 8 55 24 28 16 54 29 59 29 6 0 10 4 10 9 0 5 8 12 18 15
23 8 82 62 82 75 0 6 7 11 17 11 9 0 14 3 10 6 -3 3 4 16 16 29 49 51 74 80
75 88 1 4 16 23 34 41 43 43 122 135 126 147 2 5 10 9 18 9 9 0 13 4 10 8 -2
4 18 29 45 56 27 26 49 51 49 55 0 4 16 22 35 41 19 19 35 40 35 48 0 7 5 10
10 7 6 -3 10 -2 10 3 0 5 9 20 21 33 11 13 28 33 37 44 53 64 118 141 127 151
5 6 35 40 65 75 30 35 75 85 100 110 25 26 69 72 98 103 52 55 53 56 100 51
26 -3 97 -7 157 -11 134 -7 183 -10 258 -18 31 -3 81 -8 110 -11 28 -3 68 -8
87 -10 19 -3 58 -7 85 -10 28 -2 61 -6 75 -9 14 -3 43 -7 65 -11 35 -5 78 -12
185 -32 45 -8 224 -53 275 -70 56 -18 195 -80 195 -87 0 -10 -84 -86 -96 -86
-7 0 -14 -4 -16 -8 -4 -12 -125 -92 -137 -92 -6 0 -11 -3 -11 -8 0 -4 -15 -13
-32 -21 -18 -8 -45 -22 -59 -32 -14 -10 -29 -16 -33 -12 -3 3 -6 1 -6 -5 0 -7
-6 -12 -14 -12 -7 0 -19 -7 -26 -15 -7 -9 -15 -13 -18 -11 -2 3 -21 -5 -41
-18 -33 -21 -170 -89 -181 -91 -3 0 -15 -6 -26 -13 -12 -6 -24 -8 -28 -5 -3 3
-6 1 -6 -5 0 -7 -4 -12 -9 -12 -5 0 -22 -5 -38 -12 -15 -6 -30 -12 -33 -13 -3
-1 -23 -10 -45 -19 -22 -10 -56 -25 -75 -33 -80 -34 -97 -41 -143 -62 -27 -12
-53 -19 -58 -16 -5 4 -9 1 -9 -5 0 -6 -4 -8 -10 -5 -5 3 -10 1 -10 -4 0 -6 -5
-11 -11 -11 -6 0 -63 -21 -127 -46 -64 -26 -123 -47 -129 -47 -7 0 -13 -4 -13
-9 0 -4 -3 -7 -7 -6 -5 0 -17 -2 -28 -6 -80 -30 -99 -35 -106 -30 -5 3 -9 1
-9 -4 0 -6 -13 -15 -30 -21 -16 -5 -30 -7 -30 -4 0 3 -7 0 -15 -7 -8 -7 -15
-10 -15 -6 0 4 -14 -1 -31 -10 -17 -8 -40 -14 -50 -11 -11 3 -17 2 -14 -3 4
-7 -13 -15 -52 -25 -26 -7 -89 -28 -98 -34 -5 -3 -15 -6 -21 -7 -7 -1 -50 -16
-95 -32 -46 -17 -118 -41 -159 -53 -41 -12 -81 -26 -87 -32 -7 -5 -13 -7 -13
-3 0 3 -16 0 -35 -8 -20 -9 -38 -15 -40 -16 -3 0 -6 0 -7 -1 -2 0 -13 -2 -24
-4 -12 -3 -34 -10 -50 -16 -16 -7 -32 -12 -36 -11 -4 1 -26 -5 -50 -14 -24 -9
-50 -17 -58 -19 -69 -16 -135 -36 -146 -46 -10 -8 -14 -8 -14 -1 0 7 -18 4
-45 -8 -25 -11 -45 -18 -45 -15 0 2 -15 -1 -32 -6 -18 -6 -40 -12 -48 -14 -8
-2 -16 -4 -17 -5 -2 -2 -11 -3 -20 -5 -10 -1 -25 -4 -33 -8 -19 -7 -87 -28
-103 -31 -7 -2 -19 -6 -27 -9 -8 -3 -28 -9 -45 -13 -16 -4 -34 -8 -40 -10 -11
-3 -81 -22 -105 -29 -8 -2 -15 -4 -15 -5 0 -1 -7 -3 -15 -5 -8 -2 -64 -15
-124 -30 -60 -15 -116 -29 -125 -30 -9 -2 -16 -4 -16 -5 0 -2 -37 -11 -60 -14
-11 -1 -38 -8 -60 -14 -22 -6 -58 -14 -80 -16 -22 -3 -55 -10 -74 -15 -18 -6
-36 -10 -40 -9 -3 1 -13 -1 -21 -5 -23 -9 -149 -49 -163 -51 -7 -2 -32 -8 -57
-15 -45 -13 -63 -17 -109 -27 -13 -3 -34 -10 -45 -16 -12 -6 -21 -10 -21 -9 0
2 -11 0 -25 -3 -33 -8 -119 -17 -149 -16 -59 1 -146 -101 -120 -141 5 -8 9
-22 9 -32 0 -10 14 -33 31 -50 30 -29 36 -31 103 -30 95 1 219 10 386 28 30 3
91 8 135 10 44 3 103 10 130 16 28 5 61 11 75 13 14 2 25 5 25 6 0 2 25 6 75
13 19 3 42 7 50 11 8 3 29 8 45 10 17 3 41 7 55 11 14 4 32 8 40 9 8 2 26 6
40 9 14 4 36 9 50 11 14 2 32 7 40 10 8 3 29 7 45 10 17 3 41 7 55 11 14 3 41
8 60 11 19 3 42 9 50 14 8 4 25 6 37 5 13 -1 23 1 23 5 0 4 6 7 13 8 52 6 108
22 125 35 8 6 12 6 12 -2 0 -9 5 -9 20 -1 11 6 20 8 20 4 0 -3 6 -2 13 3 10 9
32 15 132 40 11 2 27 5 35 5 8 1 18 5 21 10 3 5 21 10 40 12 19 2 45 8 59 14
31 12 92 26 103 24 4 -1 7 2 7 6 0 5 6 9 13 9 6 0 32 6 57 13 25 8 47 14 50
15 3 1 25 8 50 15 25 8 50 15 55 16 6 0 24 7 40 13 17 7 44 15 60 18 17 3 32
8 35 11 3 4 10 8 16 9 49 9 64 13 98 28 21 9 40 14 43 11 3 -3 20 2 37 11 17
9 40 18 51 19 11 1 43 11 71 23 29 11 54 17 58 14 3 -4 6 -1 6 6 0 7 3 10 8 8
4 -3 18 0 32 6 14 5 34 12 44 14 11 2 25 8 32 14 7 6 18 8 24 4 5 -3 10 -1 10
4 0 6 3 10 8 9 9 -3 77 19 121 39 18 8 39 16 45 18 6 1 25 7 41 14 17 7 38 13
48 14 9 1 17 5 17 9 0 4 6 8 14 8 8 0 38 11 67 24 29 14 56 23 61 20 4 -3 8 0
8 5 0 6 7 11 15 11 8 0 23 4 33 9 23 12 75 35 141 61 30 11 63 26 75 33 12 6
24 12 29 13 4 1 9 3 12 4 3 1 8 3 13 4 4 1 22 10 40 20 19 9 43 19 55 22 11 2
23 7 26 12 3 5 29 17 56 28 28 10 65 27 83 37 17 10 32 15 32 10 0 -4 4 -3 8
3 4 6 39 26 77 44 39 19 72 37 73 42 2 4 12 8 23 8 10 0 19 3 19 8 0 4 24 18
53 32 28 13 58 30 65 37 7 7 18 13 24 13 6 0 19 6 27 14 9 8 23 16 31 18 8 2
26 13 40 26 13 12 33 22 42 22 10 0 18 4 18 9 0 5 17 20 38 32 20 13 51 36 67
51 17 15 33 28 38 28 16 0 168 165 167 183 0 4 9 17 20 29 11 12 20 27 20 33
0 6 5 16 12 23 6 6 13 20 14 29 1 10 5 36 9 58 8 50 7 88 -4 117 -5 13 -10 28
-12 33 -1 6 -7 15 -13 22 -29 32 -36 43 -31 43 9 0 -38 45 -70 67 -59 41 -186
106 -230 119 -5 2 -48 15 -95 30 -47 14 -98 28 -115 31 -16 3 -38 9 -47 14
-10 5 -18 8 -18 5 0 -2 -15 0 -32 4 -18 5 -46 12 -63 14 -16 3 -41 8 -55 11
-39 9 -130 24 -180 31 -25 3 -56 7 -70 9 -66 10 -148 18 -177 17 -18 0 -33 2
-33 6 0 4 -26 8 -58 9 -108 2 -199 10 -210 17 -6 3 -13 2 -17 -4 -4 -6 -13 -7
-23 -1 -9 4 -25 7 -35 6 -11 -2 -15 1 -10 10 7 11 97 110 208 230 22 24 71 77
109 118 56 61 77 78 115 88 25 6 51 15 56 18 6 3 12 6 15 6 20 2 407 151 412
159 4 6 8 8 8 3 0 -4 17 0 38 9 20 9 42 17 47 18 6 2 21 8 35 13 51 22 215 85
225 87 6 1 27 10 49 19 21 9 40 17 42 17 1 0 15 5 31 12 15 6 30 12 33 12 27
7 107 42 112 50 4 6 8 8 8 4 0 -6 30 5 130 49 81 36 267 128 291 144 14 10 29
16 33 12 3 -3 6 -1 6 5 0 7 4 12 10 12 5 0 34 16 64 35 29 19 56 31 60 28 3
-4 6 -2 6 4 0 5 24 25 53 44 63 41 169 144 191 186 20 39 30 93 30 154 -1 35
-9 57 -34 95 -34 48 -71 87 -106 111 -36 24 -195 99 -222 104 -4 1 -18 6 -32
11 -14 6 -34 12 -45 14 -11 2 -47 11 -80 19 -92 24 -98 25 -130 29 -16 2 -37
6 -45 9 -13 5 -36 9 -130 22 -14 2 -38 6 -55 9 -43 8 -110 16 -185 22 -66 6
-868 13 -873 8z m-987 -1888 c0 -3 -14 -18 -31 -35 -23 -24 -39 -31 -68 -31
-62 0 -56 13 21 41 40 15 74 27 76 28 1 0 2 -1 2 -3z"/>
</g>
</svg>
