<?xml version="1.0" encoding="UTF-8"?>
<svg id="Ebene_1" xmlns="http://www.w3.org/2000/svg" xmlns:xlink="http://www.w3.org/1999/xlink" version="1.1" viewBox="0 0 424.5 135.1">
  <!-- Generator: Adobe Illustrator 29.2.0, SVG Export Plug-In . SVG Version: 2.1.0 Build 108)  -->
  <defs>
    <style>
      .st0 {
        fill: #fff;
      }
    </style>
  </defs>
  <path class="st0" d="M4.4,91.9h6.5c5.2,0,8.4,1.9,8.4,6.2s-1.5,4.8-4.5,5.6v.2c3.8.6,6.1,2.6,6.1,6.2s-3.5,7.4-9.4,7.4h-7v-25.6h0ZM10.2,103.1c5.2,0,7.3-1.7,7.3-4.9s-2.3-4.8-7.1-4.8h-4.2v9.7h4ZM10.9,115.9c5.2,0,8.1-1.8,8.1-5.9s-2.9-5.4-8.1-5.4h-4.7v11.3h4.7Z"/>
  <path class="st0" d="M27.3,91.9h15.1v1.5h-13.3v9.7h11.2v1.5h-11.2v11.3h13.7v1.5h-15.5s0-25.6,0-25.6Z"/>
  <path class="st0" d="M49.2,91.9h7.3c5.1,0,8.4,1.9,8.4,6.8s-3.3,7.1-8.4,7.1h-5.5v11.7h-1.8v-25.6h0ZM56.1,104.2c4.5,0,7-1.8,7-5.6s-2.5-5.2-7-5.2h-5v10.8h5ZM57.8,104.7l7.6,12.8h-2.1l-7.2-12.3,1.7-.5Z"/>
  <path class="st0" d="M69.3,104.6c0-8.1,4.4-13.2,11-13.2s5.4,1.6,6.8,3.1l-1.1,1.2c-1.3-1.4-3-2.6-5.7-2.6-5.7,0-9.2,4.4-9.2,11.5s3.3,11.7,8.9,11.7,4.4-.7,5.5-1.9v-8h-5.9v-1.5h7.6v10.1c-1.6,1.7-4.1,2.9-7.4,2.9-6.4,0-10.7-5.2-10.7-13.3h0Z"/>
  <path class="st0" d="M92.5,91.9h2.4l4.5,12,1.6,4.4h.2l1.5-4.4,4.5-12h2.4v25.6h-1.8v-17.4c0-1.8.2-4.3.2-6.1h-.1l-1.4,4.4-4.8,12.3h-1.4l-4.8-12.3-1.5-4.4h0c0,1.8.3,4.2.3,6.1v17.4h-1.7v-25.6h0Z"/>
  <path class="st0" d="M116.6,91.9h15.1v1.5h-13.3v9.7h11.2v1.5h-11.2v11.3h13.7v1.5h-15.5v-25.6Z"/>
  <path class="st0" d="M138.2,115.9h6.6v-22.5h-6.6v-1.5h14.9v1.5h-6.6v22.5h6.6v1.5h-14.9s0-1.5,0-1.5Z"/>
  <path class="st0" d="M161.3,91.9h15.1v1.5h-13.3v9.7h11.2v1.5h-11.2v11.3h13.7v1.5h-15.5v-25.6h0Z"/>
  <path class="st0" d="M183.3,91.9h7.3c5.1,0,8.4,1.9,8.4,6.8s-3.3,7.1-8.4,7.1h-5.5v11.7h-1.8v-25.6h0ZM190.1,104.2c4.5,0,7-1.8,7-5.6s-2.5-5.2-7-5.2h-5v10.8h5ZM191.9,104.7l7.6,12.8h-2.1l-7.2-12.3,1.7-.5Z"/>
  <path class="st0" d="M226.4,114.1l1.1-1.2c1.9,2.1,4.8,3.4,7.9,3.4s6.7-2.1,6.7-5.1-2.3-4.2-5-5.4l-3.9-1.7c-2.4-1-5.6-2.6-5.6-6.4s3.3-6.3,7.8-6.3,5.9,1.4,7.5,3.1l-1,1.2c-1.6-1.6-3.8-2.6-6.5-2.6s-6,1.8-6,4.6,2.8,4.1,4.8,4.9l3.9,1.7c3.1,1.3,5.8,2.9,5.8,6.8s-3.4,6.9-8.6,6.9-6.9-1.6-9-3.8h0Z"/>
  <path class="st0" d="M247.8,104.6c0-8.1,4-13.2,9.6-13.2s9.5,5.1,9.5,13.2-4,13.3-9.5,13.3-9.6-5.2-9.6-13.3ZM265,104.6c0-7.1-3.1-11.5-7.7-11.5s-7.7,4.4-7.7,11.5,3.1,11.7,7.7,11.7,7.7-4.6,7.7-11.7Z"/>
  <path class="st0" d="M273.9,91.9h1.7v24h13.4v1.5h-15.1v-25.6Z"/>
  <path class="st0" d="M293.9,107.9v-16h1.8v15.8c0,6.6,3,8.6,6.4,8.6s6.5-2,6.5-8.6v-15.8h1.7v16c0,7.7-3.9,10-8.2,10s-8.2-2.3-8.2-10Z"/>
  <path class="st0" d="M323.5,93.4h-8.9v-1.5h19.6v1.5h-8.9v24h-1.8v-24h0Z"/>
  <path class="st0" d="M339.3,115.9h6.6v-22.5h-6.6v-1.5h14.9v1.5h-6.6v22.5h6.6v1.5h-14.9s0-1.5,0-1.5Z"/>
  <path class="st0" d="M359.5,104.6c0-8.1,4-13.2,9.5-13.2s9.5,5.1,9.5,13.2-4,13.3-9.5,13.3-9.5-5.2-9.5-13.3ZM376.8,104.6c0-7.1-3.1-11.5-7.7-11.5s-7.7,4.4-7.7,11.5,3.1,11.7,7.7,11.7,7.7-4.6,7.7-11.7Z"/>
  <path class="st0" d="M383.4,91.9h1.9l10,18.1,2.7,5.1h0c0-2.5-.2-4.9-.2-7.4v-15.7h1.7v25.6h-1.9l-10-18.1-2.7-5.1h0c0,2.5.2,4.8.2,7.3v15.8h-1.7v-25.6Z"/>
  <path class="st0" d="M405.1,114.1l1.1-1.2c1.9,2.1,4.8,3.4,7.9,3.4s6.7-2.1,6.7-5.1-2.3-4.2-5-5.4l-3.9-1.7c-2.4-1-5.5-2.6-5.5-6.4s3.3-6.3,7.8-6.3,5.9,1.4,7.5,3.1l-1,1.2c-1.6-1.6-3.8-2.6-6.5-2.6s-6,1.8-6,4.6,2.8,4.1,4.8,4.9l3.9,1.7c3.1,1.3,5.8,2.9,5.8,6.8s-3.4,6.9-8.5,6.9-6.9-1.6-9-3.8h0Z"/>
  <image width="584" height="445" transform="translate(142.1 -60.3) scale(.2)" xlink:href="../../../Library/CloudStorage/OneDrive-bergmeier.solutions/Business/bergmeier.solutions/logo/B_image_white.png"/>
</svg>